<svg width="842" height="596" viewBox="0 0 842 596" fill="none" xmlns="http://www.w3.org/2000/svg">
<path d="M73.247 404.626C65.591 404.626 59.3619 402.12 54.5596 397.109C49.7572 392.063 47.356 385.329 47.356 376.908V375.133C47.356 369.53 48.4174 364.536 50.5402 360.152C52.6978 355.732 55.6905 352.287 59.5185 349.816C63.3813 347.311 67.5572 346.058 72.0464 346.058C79.3891 346.058 85.0963 348.476 89.1678 353.314C93.2394 358.151 95.2752 365.076 95.2752 374.089V378.108H57.0129C57.1521 383.676 58.7703 388.183 61.8675 391.628C64.9995 395.038 68.9666 396.744 73.769 396.744C77.1793 396.744 80.0677 396.048 82.4341 394.656C84.8005 393.264 86.8711 391.419 88.6458 389.122L94.5444 393.716C89.8116 400.989 82.7125 404.626 73.247 404.626ZM72.0464 353.992C68.1488 353.992 64.8777 355.419 62.2329 358.272C59.5881 361.091 57.9525 365.058 57.3261 370.174H85.6183V369.443C85.3399 364.536 84.0175 360.743 81.6511 358.064C79.2847 355.349 76.0832 353.992 72.0464 353.992ZM129.153 396.744C132.598 396.744 135.608 395.7 138.183 393.612C140.758 391.524 142.185 388.914 142.464 385.782H151.598C151.424 389.018 150.311 392.098 148.258 395.021C146.204 397.944 143.455 400.276 140.01 402.016C136.6 403.756 132.981 404.626 129.153 404.626C121.462 404.626 115.337 402.068 110.778 396.952C106.254 391.802 103.992 384.772 103.992 375.864V374.246C103.992 368.747 105.002 363.858 107.02 359.577C109.038 355.297 111.927 351.974 115.685 349.607C119.478 347.241 123.95 346.058 129.1 346.058C135.434 346.058 140.689 347.954 144.865 351.748C149.075 355.541 151.32 360.465 151.598 366.52H142.464C142.185 362.866 140.793 359.873 138.288 357.542C135.817 355.175 132.754 353.992 129.1 353.992C124.194 353.992 120.383 355.767 117.669 359.316C114.989 362.831 113.649 367.929 113.649 374.611V376.438C113.649 382.945 114.989 387.957 117.669 391.471C120.348 394.986 124.176 396.744 129.153 396.744ZM159.898 374.82C159.898 369.287 160.977 364.31 163.135 359.891C165.327 355.471 168.354 352.061 172.217 349.66C176.115 347.258 180.552 346.058 185.528 346.058C193.219 346.058 199.431 348.72 204.163 354.044C208.931 359.369 211.315 366.45 211.315 375.29V375.968C211.315 381.466 210.253 386.408 208.131 390.793C206.043 395.143 203.032 398.536 199.1 400.972C195.202 403.408 190.713 404.626 185.633 404.626C177.977 404.626 171.765 401.963 166.997 396.639C162.265 391.315 159.898 384.268 159.898 375.498V374.82ZM169.607 375.968C169.607 382.232 171.051 387.261 173.94 391.054C176.863 394.847 180.761 396.744 185.633 396.744C190.539 396.744 194.437 394.83 197.325 391.002C200.214 387.139 201.658 381.745 201.658 374.82C201.658 368.625 200.179 363.614 197.221 359.786C194.298 355.924 190.4 353.992 185.528 353.992C180.761 353.992 176.915 355.889 173.992 359.682C171.069 363.475 169.607 368.904 169.607 375.968ZM256.311 388.6C256.311 385.99 255.319 383.972 253.335 382.545C251.387 381.084 247.959 379.831 243.052 378.787C238.18 377.743 234.3 376.49 231.412 375.029C228.558 373.567 226.435 371.827 225.043 369.809C223.686 367.79 223.007 365.389 223.007 362.605C223.007 357.977 224.956 354.062 228.854 350.86C232.786 347.659 237.797 346.058 243.887 346.058C250.29 346.058 255.475 347.711 259.443 351.017C263.445 354.323 265.446 358.551 265.446 363.701H255.736C255.736 361.056 254.605 358.777 252.344 356.863C250.116 354.949 247.298 353.992 243.887 353.992C240.372 353.992 237.623 354.758 235.64 356.289C233.656 357.82 232.664 359.821 232.664 362.292C232.664 364.623 233.586 366.381 235.431 367.564C237.275 368.747 240.599 369.878 245.401 370.957C250.238 372.036 254.153 373.323 257.146 374.82C260.139 376.316 262.348 378.126 263.775 380.248C265.237 382.336 265.968 384.894 265.968 387.922C265.968 392.968 263.949 397.022 259.912 400.084C255.876 403.112 250.638 404.626 244.2 404.626C239.676 404.626 235.674 403.825 232.195 402.224C228.715 400.624 225.983 398.397 223.999 395.543C222.05 392.655 221.076 389.54 221.076 386.199H230.733C230.907 389.436 232.195 392.011 234.596 393.925C237.032 395.804 240.233 396.744 244.2 396.744C247.854 396.744 250.778 396.013 252.97 394.551C255.197 393.055 256.311 391.071 256.311 388.6Z" fill="#209C91"/>
<path d="M315.949 353.799H289.704V399H274.893V287.265H311.882C324.467 287.265 334.137 290.13 340.89 295.86C347.694 301.59 351.097 309.929 351.097 320.877C351.097 327.835 349.204 333.898 345.418 339.065C341.683 344.232 336.465 348.095 329.763 350.653L356.008 398.079V399H340.199L315.949 353.799ZM289.704 341.751H312.342C319.658 341.751 325.465 339.858 329.763 336.072C334.111 332.286 336.286 327.221 336.286 320.877C336.286 313.971 334.214 308.675 330.07 304.992C325.977 301.308 320.042 299.441 312.266 299.39H289.704V341.751ZM434.975 347.353H386.551V386.952H442.803V399H371.817V287.265H442.035V299.39H386.551V335.305H434.975V347.353ZM461.144 399V287.265H492.684C502.405 287.265 511 289.413 518.469 293.711C525.939 298.008 531.695 304.122 535.736 312.052C539.829 319.982 541.901 329.089 541.952 339.372V346.509C541.952 357.048 539.906 366.283 535.813 374.213C531.771 382.142 525.965 388.231 518.393 392.477C510.872 396.723 502.098 398.898 492.07 399H461.144ZM475.878 299.39V386.952H491.38C502.738 386.952 511.563 383.422 517.856 376.361C524.2 369.301 527.371 359.248 527.371 346.202V339.679C527.371 326.991 524.379 317.143 518.393 310.134C512.458 303.073 504.017 299.492 493.068 299.39H475.878Z" fill="#EF772E"/>
<path d="M61.4927 456.828C58.4278 456.828 55.934 455.825 54.0114 453.818C52.0888 451.798 51.1276 449.103 51.1276 445.731V445.021C51.1276 442.778 51.5525 440.778 52.4023 439.023C53.2661 437.254 54.4642 435.874 55.9967 434.885C57.5431 433.882 59.2149 433.381 61.0121 433.381C63.9517 433.381 66.2365 434.349 67.8665 436.285C69.4965 438.222 70.3115 440.994 70.3115 444.603V446.212H54.9936C55.0493 448.441 55.6972 450.245 56.9371 451.624C58.1909 452.99 59.7791 453.672 61.7017 453.672C63.067 453.672 64.2234 453.394 65.1707 452.836C66.1181 452.279 66.947 451.541 67.6575 450.621L70.0189 452.46C68.1242 455.372 65.2822 456.828 61.4927 456.828ZM61.0121 436.557C59.4517 436.557 58.1422 437.128 57.0834 438.271C56.0245 439.399 55.3698 440.987 55.119 443.035H66.4455V442.743C66.334 440.778 65.8046 439.26 64.8573 438.187C63.9099 437.1 62.6282 436.557 61.0121 436.557ZM83.874 453.672C85.2533 453.672 86.4584 453.254 87.4893 452.418C88.5203 451.582 89.0915 450.538 89.2029 449.284H92.86C92.7903 450.579 92.3445 451.812 91.5225 452.983C90.7006 454.153 89.6 455.086 88.2207 455.783C86.8554 456.479 85.4065 456.828 83.874 456.828C80.7951 456.828 78.3431 455.804 76.5181 453.756C74.707 451.694 73.8014 448.88 73.8014 445.313V444.665C73.8014 442.464 74.2054 440.507 75.0135 438.793C75.8215 437.08 76.9778 435.749 78.4825 434.802C80.001 433.854 81.7912 433.381 83.8531 433.381C86.3887 433.381 88.4924 434.14 90.1642 435.659C91.8499 437.177 92.7485 439.148 92.86 441.573H89.2029C89.0915 440.11 88.5342 438.912 87.5311 437.978C86.5419 437.031 85.316 436.557 83.8531 436.557C81.8888 436.557 80.3632 437.268 79.2766 438.689C78.2038 440.096 77.6675 442.137 77.6675 444.812V445.543C77.6675 448.148 78.2038 450.154 79.2766 451.562C80.3493 452.969 81.8818 453.672 83.874 453.672ZM96.1827 444.895C96.1827 442.68 96.6146 440.688 97.4783 438.919C98.356 437.149 99.5681 435.784 101.115 434.823C102.675 433.861 104.451 433.381 106.443 433.381C109.522 433.381 112.009 434.446 113.904 436.578C115.812 438.71 116.767 441.545 116.767 445.083V445.355C116.767 447.556 116.342 449.534 115.492 451.29C114.656 453.031 113.451 454.39 111.877 455.365C110.316 456.34 108.519 456.828 106.485 456.828C103.42 456.828 100.933 455.762 99.0248 453.63C97.13 451.499 96.1827 448.678 96.1827 445.167V444.895ZM100.07 445.355C100.07 447.863 100.648 449.876 101.804 451.394C102.974 452.913 104.535 453.672 106.485 453.672C108.45 453.672 110.01 452.906 111.166 451.373C112.323 449.827 112.901 447.668 112.901 444.895C112.901 442.415 112.309 440.409 111.124 438.877C109.954 437.33 108.394 436.557 106.443 436.557C104.535 436.557 102.995 437.316 101.825 438.835C100.655 440.353 100.07 442.527 100.07 445.355ZM134.78 450.412C134.78 449.367 134.383 448.559 133.589 447.988C132.809 447.403 131.437 446.901 129.473 446.483C127.522 446.065 125.969 445.564 124.812 444.979C123.67 444.394 122.82 443.697 122.263 442.889C121.72 442.081 121.448 441.12 121.448 440.005C121.448 438.152 122.228 436.585 123.788 435.303C125.363 434.022 127.369 433.381 129.807 433.381C132.37 433.381 134.446 434.042 136.034 435.366C137.636 436.689 138.438 438.382 138.438 440.444H134.551C134.551 439.385 134.098 438.473 133.192 437.706C132.301 436.94 131.172 436.557 129.807 436.557C128.4 436.557 127.299 436.864 126.505 437.477C125.711 438.09 125.314 438.891 125.314 439.88C125.314 440.813 125.683 441.517 126.421 441.99C127.16 442.464 128.49 442.917 130.413 443.349C132.349 443.781 133.917 444.296 135.115 444.895C136.313 445.494 137.198 446.219 137.769 447.069C138.354 447.904 138.647 448.928 138.647 450.141C138.647 452.161 137.838 453.784 136.222 455.01C134.606 456.222 132.51 456.828 129.932 456.828C128.121 456.828 126.519 456.507 125.126 455.866C123.733 455.226 122.639 454.334 121.845 453.192C121.065 452.035 120.675 450.788 120.675 449.451H124.541C124.61 450.747 125.126 451.777 126.087 452.544C127.062 453.296 128.344 453.672 129.932 453.672C131.395 453.672 132.565 453.38 133.443 452.795C134.335 452.195 134.78 451.401 134.78 450.412ZM147.883 456.41H144.017V433.799H147.883V456.41ZM143.704 427.801C143.704 427.174 143.892 426.645 144.268 426.213C144.658 425.781 145.229 425.565 145.982 425.565C146.734 425.565 147.305 425.781 147.695 426.213C148.085 426.645 148.28 427.174 148.28 427.801C148.28 428.428 148.085 428.95 147.695 429.368C147.305 429.786 146.734 429.995 145.982 429.995C145.229 429.995 144.658 429.786 144.268 429.368C143.892 428.95 143.704 428.428 143.704 427.801ZM167.255 450.412C167.255 449.367 166.858 448.559 166.064 447.988C165.284 447.403 163.912 446.901 161.947 446.483C159.997 446.065 158.443 445.564 157.287 444.979C156.145 444.394 155.295 443.697 154.738 442.889C154.194 442.081 153.923 441.12 153.923 440.005C153.923 438.152 154.703 436.585 156.263 435.303C157.837 434.022 159.844 433.381 162.282 433.381C164.845 433.381 166.921 434.042 168.509 435.366C170.111 436.689 170.912 438.382 170.912 440.444H167.025C167.025 439.385 166.573 438.473 165.667 437.706C164.775 436.94 163.647 436.557 162.282 436.557C160.875 436.557 159.774 436.864 158.98 437.477C158.186 438.09 157.789 438.891 157.789 439.88C157.789 440.813 158.158 441.517 158.896 441.99C159.635 442.464 160.965 442.917 162.888 443.349C164.824 443.781 166.392 444.296 167.59 444.895C168.788 445.494 169.672 446.219 170.244 447.069C170.829 447.904 171.121 448.928 171.121 450.141C171.121 452.161 170.313 453.784 168.697 455.01C167.081 456.222 164.984 456.828 162.407 456.828C160.596 456.828 158.994 456.507 157.601 455.866C156.207 455.226 155.114 454.334 154.32 453.192C153.54 452.035 153.149 450.788 153.149 449.451H157.015C157.085 450.747 157.601 451.777 158.562 452.544C159.537 453.296 160.819 453.672 162.407 453.672C163.87 453.672 165.04 453.38 165.918 452.795C166.809 452.195 167.255 451.401 167.255 450.412ZM181.403 428.323V433.799H185.624V436.787H181.403V450.809C181.403 451.715 181.591 452.397 181.967 452.857C182.343 453.303 182.984 453.526 183.89 453.526C184.336 453.526 184.949 453.442 185.729 453.275V456.41C184.712 456.688 183.723 456.828 182.761 456.828C181.034 456.828 179.731 456.305 178.853 455.26C177.976 454.216 177.537 452.732 177.537 450.809V436.787H173.42V433.799H177.537V428.323H181.403ZM199.542 456.828C196.477 456.828 193.983 455.825 192.061 453.818C190.138 451.798 189.177 449.103 189.177 445.731V445.021C189.177 442.778 189.602 440.778 190.452 439.023C191.315 437.254 192.513 435.874 194.046 434.885C195.592 433.882 197.264 433.381 199.061 433.381C202.001 433.381 204.286 434.349 205.916 436.285C207.546 438.222 208.361 440.994 208.361 444.603V446.212H193.043C193.099 448.441 193.746 450.245 194.986 451.624C196.24 452.99 197.828 453.672 199.751 453.672C201.116 453.672 202.273 453.394 203.22 452.836C204.167 452.279 204.996 451.541 205.707 450.621L208.068 452.46C206.174 455.372 203.331 456.828 199.542 456.828ZM199.061 436.557C197.501 436.557 196.191 437.128 195.133 438.271C194.074 439.399 193.419 440.987 193.168 443.035H204.495V442.743C204.383 440.778 203.854 439.26 202.907 438.187C201.959 437.1 200.677 436.557 199.061 436.557ZM216.49 433.799L216.594 436.306C218.252 434.356 220.488 433.381 223.303 433.381C226.465 433.381 228.617 434.593 229.76 437.017C230.512 435.93 231.487 435.052 232.686 434.384C233.898 433.715 235.326 433.381 236.97 433.381C241.929 433.381 244.451 436.007 244.534 441.259V456.41H240.668V441.489C240.668 439.873 240.299 438.668 239.561 437.874C238.822 437.066 237.583 436.662 235.841 436.662C234.406 436.662 233.215 437.093 232.268 437.957C231.32 438.807 230.77 439.956 230.617 441.405V456.41H226.73V441.593C226.73 438.306 225.121 436.662 221.902 436.662C219.367 436.662 217.632 437.741 216.699 439.901V456.41H212.833V433.799H216.49ZM264.345 456.41C264.122 455.964 263.941 455.17 263.802 454.027C262.005 455.894 259.859 456.828 257.366 456.828C255.136 456.828 253.304 456.201 251.869 454.947C250.448 453.679 249.738 452.077 249.738 450.141C249.738 447.786 250.63 445.961 252.413 444.665C254.21 443.356 256.732 442.701 259.978 442.701H263.739V440.925C263.739 439.573 263.335 438.501 262.527 437.706C261.719 436.898 260.528 436.494 258.954 436.494C257.575 436.494 256.418 436.843 255.485 437.539C254.551 438.236 254.085 439.079 254.085 440.068H250.198C250.198 438.939 250.595 437.853 251.389 436.808C252.197 435.749 253.284 434.913 254.649 434.3C256.028 433.687 257.54 433.381 259.184 433.381C261.789 433.381 263.83 434.035 265.307 435.345C266.783 436.641 267.55 438.431 267.605 440.716V451.123C267.605 453.199 267.87 454.849 268.399 456.075V456.41H264.345ZM257.93 453.463C259.142 453.463 260.291 453.15 261.378 452.523C262.465 451.896 263.252 451.081 263.739 450.078V445.439H260.709C255.972 445.439 253.604 446.825 253.604 449.597C253.604 450.809 254.008 451.757 254.816 452.439C255.624 453.122 256.662 453.463 257.93 453.463ZM286.831 450.412C286.831 449.367 286.434 448.559 285.64 447.988C284.86 447.403 283.488 446.901 281.523 446.483C279.573 446.065 278.019 445.564 276.863 444.979C275.721 444.394 274.871 443.697 274.313 442.889C273.77 442.081 273.498 441.12 273.498 440.005C273.498 438.152 274.279 436.585 275.839 435.303C277.413 434.022 279.419 433.381 281.857 433.381C284.421 433.381 286.497 434.042 288.085 435.366C289.687 436.689 290.488 438.382 290.488 440.444H286.601C286.601 439.385 286.148 438.473 285.243 437.706C284.351 436.94 283.223 436.557 281.857 436.557C280.45 436.557 279.35 436.864 278.556 437.477C277.762 438.09 277.365 438.891 277.365 439.88C277.365 440.813 277.734 441.517 278.472 441.99C279.21 442.464 280.541 442.917 282.464 443.349C284.4 443.781 285.967 444.296 287.165 444.895C288.364 445.494 289.248 446.219 289.819 447.069C290.405 447.904 290.697 448.928 290.697 450.141C290.697 452.161 289.889 453.784 288.273 455.01C286.657 456.222 284.56 456.828 281.983 456.828C280.172 456.828 278.57 456.507 277.176 455.866C275.783 455.226 274.69 454.334 273.896 453.192C273.115 452.035 272.725 450.788 272.725 449.451H276.591C276.661 450.747 277.176 451.777 278.138 452.544C279.113 453.296 280.395 453.672 281.983 453.672C283.446 453.672 284.616 453.38 285.494 452.795C286.385 452.195 286.831 451.401 286.831 450.412ZM305.409 444.916C305.409 441.447 306.231 438.661 307.875 436.557C309.519 434.439 311.671 433.381 314.332 433.381C316.979 433.381 319.076 434.286 320.622 436.097V424.311H324.489V456.41H320.936L320.748 453.986C319.201 455.88 317.049 456.828 314.29 456.828C311.671 456.828 309.533 455.755 307.875 453.61C306.231 451.464 305.409 448.664 305.409 445.209V444.916ZM309.275 445.355C309.275 447.918 309.804 449.925 310.863 451.373C311.922 452.822 313.385 453.547 315.252 453.547C317.704 453.547 319.494 452.446 320.622 450.245V439.859C319.466 437.727 317.69 436.662 315.294 436.662C313.399 436.662 311.922 437.393 310.863 438.856C309.804 440.319 309.275 442.485 309.275 445.355ZM334.707 456.41H330.841V433.799H334.707V456.41ZM330.528 427.801C330.528 427.174 330.716 426.645 331.092 426.213C331.482 425.781 332.053 425.565 332.806 425.565C333.558 425.565 334.129 425.781 334.519 426.213C334.909 426.645 335.104 427.174 335.104 427.801C335.104 428.428 334.909 428.95 334.519 429.368C334.129 429.786 333.558 429.995 332.806 429.995C332.053 429.995 331.482 429.786 331.092 429.368C330.716 428.95 330.528 428.428 330.528 427.801ZM339.995 444.916C339.995 441.391 340.81 438.591 342.44 436.515C344.07 434.426 346.229 433.381 348.918 433.381C351.676 433.381 353.829 434.356 355.375 436.306L355.563 433.799H359.095V455.866C359.095 458.792 358.224 461.098 356.483 462.784C354.755 464.469 352.429 465.312 349.503 465.312C347.873 465.312 346.278 464.964 344.717 464.267C343.157 463.571 341.966 462.616 341.144 461.404L343.15 459.085C344.808 461.133 346.835 462.157 349.231 462.157C351.112 462.157 352.575 461.627 353.62 460.568C354.679 459.51 355.208 458.019 355.208 456.096V454.153C353.662 455.936 351.551 456.828 348.876 456.828C346.229 456.828 344.083 455.762 342.44 453.63C340.81 451.499 339.995 448.594 339.995 444.916ZM343.881 445.355C343.881 447.904 344.404 449.911 345.449 451.373C346.494 452.822 347.956 453.547 349.837 453.547C352.275 453.547 354.066 452.439 355.208 450.224V439.901C354.024 437.741 352.247 436.662 349.879 436.662C347.998 436.662 346.528 437.393 345.47 438.856C344.411 440.319 343.881 442.485 343.881 445.355ZM369.147 456.41H365.281V433.799H369.147V456.41ZM364.967 427.801C364.967 427.174 365.155 426.645 365.531 426.213C365.921 425.781 366.493 425.565 367.245 425.565C367.997 425.565 368.568 425.781 368.959 426.213C369.349 426.645 369.544 427.174 369.544 427.801C369.544 428.428 369.349 428.95 368.959 429.368C368.568 429.786 367.997 429.995 367.245 429.995C366.493 429.995 365.921 429.786 365.531 429.368C365.155 428.95 364.967 428.428 364.967 427.801ZM380.598 428.323V433.799H384.82V436.787H380.598V450.809C380.598 451.715 380.787 452.397 381.163 452.857C381.539 453.303 382.18 453.526 383.085 453.526C383.531 453.526 384.144 453.442 384.924 453.275V456.41C383.907 456.688 382.918 456.828 381.957 456.828C380.229 456.828 378.927 456.305 378.049 455.26C377.171 454.216 376.732 452.732 376.732 450.809V436.787H372.616V433.799H376.732V428.323H380.598ZM403.314 456.41C403.091 455.964 402.91 455.17 402.771 454.027C400.974 455.894 398.828 456.828 396.334 456.828C394.105 456.828 392.273 456.201 390.838 454.947C389.417 453.679 388.707 452.077 388.707 450.141C388.707 447.786 389.598 445.961 391.382 444.665C393.179 443.356 395.7 442.701 398.947 442.701H402.708V440.925C402.708 439.573 402.304 438.501 401.496 437.706C400.688 436.898 399.497 436.494 397.923 436.494C396.543 436.494 395.387 436.843 394.454 437.539C393.52 438.236 393.053 439.079 393.053 440.068H389.166C389.166 438.939 389.563 437.853 390.358 436.808C391.166 435.749 392.252 434.913 393.618 434.3C394.997 433.687 396.508 433.381 398.152 433.381C400.758 433.381 402.799 434.035 404.275 435.345C405.752 436.641 406.518 438.431 406.574 440.716V451.123C406.574 453.199 406.839 454.849 407.368 456.075V456.41H403.314ZM396.899 453.463C398.111 453.463 399.26 453.15 400.347 452.523C401.433 451.896 402.22 451.081 402.708 450.078V445.439H399.678C394.941 445.439 392.573 446.825 392.573 449.597C392.573 450.809 392.977 451.757 393.785 452.439C394.593 453.122 395.631 453.463 396.899 453.463ZM416.835 456.41H412.969V424.311H416.835V456.41ZM432.424 456.828C429.359 456.828 426.866 455.825 424.943 453.818C423.02 451.798 422.059 449.103 422.059 445.731V445.021C422.059 442.778 422.484 440.778 423.334 439.023C424.198 437.254 425.396 435.874 426.928 434.885C428.475 433.882 430.147 433.381 431.944 433.381C434.883 433.381 437.168 434.349 438.798 436.285C440.428 438.222 441.243 440.994 441.243 444.603V446.212H425.925C425.981 448.441 426.629 450.245 427.869 451.624C429.123 452.99 430.711 453.672 432.633 453.672C433.999 453.672 435.155 453.394 436.102 452.836C437.05 452.279 437.879 451.541 438.589 450.621L440.951 452.46C439.056 455.372 436.214 456.828 432.424 456.828ZM431.944 436.557C430.383 436.557 429.074 437.128 428.015 438.271C426.956 439.399 426.301 440.987 426.051 443.035H437.377V442.743C437.266 440.778 436.736 439.26 435.789 438.187C434.842 437.1 433.56 436.557 431.944 436.557ZM458.902 450.412C458.902 449.367 458.505 448.559 457.71 447.988C456.93 447.403 455.558 446.901 453.594 446.483C451.643 446.065 450.09 445.564 448.933 444.979C447.791 444.394 446.941 443.697 446.384 442.889C445.841 442.081 445.569 441.12 445.569 440.005C445.569 438.152 446.349 436.585 447.909 435.303C449.484 434.022 451.49 433.381 453.928 433.381C456.491 433.381 458.567 434.042 460.155 435.366C461.758 436.689 462.559 438.382 462.559 440.444H458.672C458.672 439.385 458.219 438.473 457.313 437.706C456.422 436.94 455.293 436.557 453.928 436.557C452.521 436.557 451.42 436.864 450.626 437.477C449.832 438.09 449.435 438.891 449.435 439.88C449.435 440.813 449.804 441.517 450.543 441.99C451.281 442.464 452.611 442.917 454.534 443.349C456.471 443.781 458.038 444.296 459.236 444.895C460.434 445.494 461.319 446.219 461.89 447.069C462.475 447.904 462.768 448.928 462.768 450.141C462.768 452.161 461.96 453.784 460.344 455.01C458.727 456.222 456.631 456.828 454.053 456.828C452.242 456.828 450.64 456.507 449.247 455.866C447.854 455.226 446.76 454.334 445.966 453.192C445.186 452.035 444.796 450.788 444.796 449.451H448.662C448.731 450.747 449.247 451.777 450.208 452.544C451.183 453.296 452.465 453.672 454.053 453.672C455.516 453.672 456.686 453.38 457.564 452.795C458.456 452.195 458.902 451.401 458.902 450.412Z" fill="#616160"/>
<path d="M632.54 484.54C682.505 484.54 723.01 442.374 723.01 390.36C723.01 338.346 682.505 296.18 632.54 296.18C582.575 296.18 542.07 338.346 542.07 390.36C542.07 442.374 582.575 484.54 632.54 484.54Z" fill="#EF772E"/>
<path d="M768.24 163.11C793.22 163.11 813.47 142.027 813.47 116.02C813.47 90.0129 793.22 68.93 768.24 68.93C743.26 68.93 723.01 90.0129 723.01 116.02C723.01 142.027 743.26 163.11 768.24 163.11Z" stroke="#EF772F" stroke-width="5" stroke-miterlimit="10"/>
<path d="M519.46 228.95C531.953 228.95 542.08 218.411 542.08 205.41C542.08 192.409 531.953 181.87 519.46 181.87C506.967 181.87 496.84 192.409 496.84 205.41C496.84 218.411 506.967 228.95 519.46 228.95Z" stroke="#EF772F" stroke-width="5" stroke-miterlimit="10"/>
<path d="M519.46 205.41L632.54 390.36L768.24 116.02" stroke="#EF772F" stroke-width="5" stroke-miterlimit="10"/>
</svg>
